<svg xmlns="http://www.w3.org/2000/svg"
  xmlns:xlink="http://www.w3.org/1999/xlink" width="100" height="105" viewBox="0 0 100 105" fill="none">
  <path d="M61.2032 18.9605C62.3436 17.0752 63 14.8642 63 12.5C63 5.59644 57.4036 0 50.5 0C43.5964 0 38 5.59644 38 12.5C38 18.1886 41.8 22.9897 47 24.5034L47 80.4966C45.9494 80.8024 44.956 81.2424 44.0395 81.7968L18.8682 56.6256C19.5912 55.2423 20 53.6689 20 52C20 46.4772 15.5228 42 10 42C4.47715 42 0 46.4772 0 52C0 57.5229 4.47715 62 10 62C11.6689 62 13.2423 61.5912 14.6256 60.8682L39.7968 86.0395C38.6564 87.9248 38 90.1358 38 92.5C38 99.4036 43.5964 105 50.5 105C57.4036 105 63 99.4036 63 92.5C63 86.4526 58.7056 81.4082 53 80.25L53 24.75C54.4228 24.4611 55.7579 23.9306 56.9605 23.2032L81.1318 47.3744C80.4088 48.7577 80 50.3311 80 52C80 57.5229 84.4771 62 90 62C95.5229 62 100 57.5229 100 52C100 46.4772 95.5229 42 90 42C88.3311 42 86.7577 42.4088 85.3744 43.1318L61.2032 18.9605Z" fill-rule="evenodd" fill="#F15547">
  </path>
</svg>
